HIERARCHY
ROOT mixamorig:Hips
{
	OFFSET -0.000008 104.274872 1.554316
	CHANNELS 6 Xposition Yposition Zposition Xrotation Yrotation Zrotation
	JOINT mixamorig:Spine
	{
		OFFSET -0.000005 10.181595 0.131519
		CHANNELS 6 Xposition Yposition Zposition Xrotation Yrotation Zrotation
		JOINT mixamorig:Spine1
		{
			OFFSET -0.000000 9.893959 -1.470707
			CHANNELS 6 Xposition Yposition Zposition Xrotation Yrotation Zrotation
			JOINT mixamorig:Spine2
			{
				OFFSET -0.000000 9.220757 -1.370641
				CHANNELS 6 Xposition Yposition Zposition Xrotation Yrotation Zrotation
				JOINT mixamorig:Neck
				{
					OFFSET 0.000001 16.740417 -2.049036
					CHANNELS 6 Xposition Yposition Zposition Xrotation Yrotation Zrotation
					JOINT mixamorig:Head
					{
						OFFSET 0.000000 9.617874 1.685006
						CHANNELS 6 Xposition Yposition Zposition Xrotation Yrotation Zrotation
						JOINT mixamorig:HeadTop_End
						{
							OFFSET 0.000002 22.037354 7.501101
							CHANNELS 6 Xposition Yposition Zposition Xrotation Yrotation Zrotation
							End Site
							{
								OFFSET 0.000168 2310.654297 -282.823242
							}
						}
					}
				}
				JOINT mixamorig:RightShoulder
				{
					OFFSET -4.569970 11.014908 -2.160885
					CHANNELS 6 Xposition Yposition Zposition Xrotation Yrotation Zrotation
					JOINT mixamorig:RightArm
					{
						OFFSET -10.592851 -0.524811 -2.232101
						CHANNELS 6 Xposition Yposition Zposition Xrotation Yrotation Zrotation
						JOINT mixamorig:RightForeArm
						{
							OFFSET -27.841511 0.000031 -0.000004
							CHANNELS 6 Xposition Yposition Zposition Xrotation Yrotation Zrotation
							JOINT mixamorig:RightHand
							{
								OFFSET -28.328831 -0.000015 0.000015
								CHANNELS 6 Xposition Yposition Zposition Xrotation Yrotation Zrotation
								JOINT mixamorig:RightHandThumb1
								{
									OFFSET -2.464806 -1.573990 2.681852
									CHANNELS 6 Xposition Yposition Zposition Xrotation Yrotation Zrotation
									JOINT mixamorig:RightHandThumb2
									{
										OFFSET -3.215179 -1.872803 1.924282
										CHANNELS 6 Xposition Yposition Zposition Xrotation Yrotation Zrotation
										JOINT mixamorig:RightHandThumb3
										{
											OFFSET -2.654831 -1.527969 1.512609
											CHANNELS 6 Xposition Yposition Zposition Xrotation Yrotation Zrotation
											JOINT mixamorig:RightHandThumb4
											{
												OFFSET -2.018814 -1.152008 1.108052
												CHANNELS 6 Xposition Yposition Zposition Xrotation Yrotation Zrotation
												End Site
												{
													OFFSET -188.809540 -114.533607 132.431396
												}
											}
										}
									}
								}
								JOINT mixamorig:RightHandIndex1
								{
									OFFSET -9.108284 -0.517868 2.259835
									CHANNELS 6 Xposition Yposition Zposition Xrotation Yrotation Zrotation
									JOINT mixamorig:RightHandIndex2
									{
										OFFSET -3.699989 0.000000 0.001215
										CHANNELS 6 Xposition Yposition Zposition Xrotation Yrotation Zrotation
										JOINT mixamorig:RightHandIndex3
										{
											OFFSET -2.850006 0.000031 -0.000522
											CHANNELS 6 Xposition Yposition Zposition Xrotation Yrotation Zrotation
											JOINT mixamorig:RightHandIndex4
											{
												OFFSET -2.772186 -0.000015 -0.000020
												CHANNELS 6 Xposition Yposition Zposition Xrotation Yrotation Zrotation
												End Site
												{
													OFFSET -277.218445 0.000000 -0.050231
												}
											}
										}
									}
								}
								JOINT mixamorig:RightHandMiddle1
								{
									OFFSET -9.532516 -0.000031 -0.000023
									CHANNELS 6 Xposition Yposition Zposition Xrotation Yrotation Zrotation
									JOINT mixamorig:RightHandMiddle2
									{
										OFFSET -3.700005 -0.000015 0.003713
										CHANNELS 6 Xposition Yposition Zposition Xrotation Yrotation Zrotation
										JOINT mixamorig:RightHandMiddle3
										{
											OFFSET -2.949974 0.000015 -0.002054
											CHANNELS 6 Xposition Yposition Zposition Xrotation Yrotation Zrotation
											JOINT mixamorig:RightHandMiddle4
											{
												OFFSET -2.946640 0.000000 -0.000156
												CHANNELS 6 Xposition Yposition Zposition Xrotation Yrotation Zrotation
												End Site
												{
													OFFSET -294.664337 0.000000 -0.113670
												}
											}
										}
									}
								}
								JOINT mixamorig:RightHandRing1
								{
									OFFSET -9.103600 -0.043076 -1.865134
									CHANNELS 6 Xposition Yposition Zposition Xrotation Yrotation Zrotation
									JOINT mixamorig:RightHandRing2
									{
										OFFSET -3.379288 0.000000 -0.001055
										CHANNELS 6 Xposition Yposition Zposition Xrotation Yrotation Zrotation
										JOINT mixamorig:RightHandRing3
										{
											OFFSET -2.889687 -0.000015 0.000379
											CHANNELS 6 Xposition Yposition Zposition Xrotation Yrotation Zrotation
											JOINT mixamorig:RightHandRing4
											{
												OFFSET -2.638809 -0.000015 0.000941
												CHANNELS 6 Xposition Yposition Zposition Xrotation Yrotation Zrotation
												End Site
												{
													OFFSET -263.880371 0.000000 0.516020
												}
											}
										}
									}
								}
								JOINT mixamorig:RightHandPinky1
								{
									OFFSET -8.076683 -0.486710 -3.806280
									CHANNELS 6 Xposition Yposition Zposition Xrotation Yrotation Zrotation
									JOINT mixamorig:RightHandPinky2
									{
										OFFSET -3.600014 -0.000015 -0.003747
										CHANNELS 6 Xposition Yposition Zposition Xrotation Yrotation Zrotation
										JOINT mixamorig:RightHandPinky3
										{
											OFFSET -2.099983 0.000000 -0.005739
											CHANNELS 6 Xposition Yposition Zposition Xrotation Yrotation Zrotation
											JOINT mixamorig:RightHandPinky4
											{
												OFFSET -2.115768 -0.000031 -0.003680
												CHANNELS 6 Xposition Yposition Zposition Xrotation Yrotation Zrotation
												End Site
												{
													OFFSET -211.577087 0.000000 -0.350686
												}
											}
										}
									}
								}
							}
						}
					}
				}
				JOINT mixamorig:LeftShoulder
				{
					OFFSET 4.570447 11.014725 -2.160855
					CHANNELS 6 Xposition Yposition Zposition Xrotation Yrotation Zrotation
					JOINT mixamorig:LeftArm
					{
						OFFSET 10.592371 -0.524597 -2.232119
						CHANNELS 6 Xposition Yposition Zposition Xrotation Yrotation Zrotation
						JOINT mixamorig:LeftForeArm
						{
							OFFSET 27.841532 -0.000031 0.000026
							CHANNELS 6 Xposition Yposition Zposition Xrotation Yrotation Zrotation
							JOINT mixamorig:LeftHand
							{
								OFFSET 28.328846 -0.000061 0.000022
								CHANNELS 6 Xposition Yposition Zposition Xrotation Yrotation Zrotation
								JOINT mixamorig:LeftHandThumb1
								{
									OFFSET 2.466141 -1.576172 2.681732
									CHANNELS 6 Xposition Yposition Zposition Xrotation Yrotation Zrotation
									JOINT mixamorig:LeftHandThumb2
									{
										OFFSET 3.217812 -1.872070 1.916482
										CHANNELS 6 Xposition Yposition Zposition Xrotation Yrotation Zrotation
										JOINT mixamorig:LeftHandThumb3
										{
											OFFSET 2.656029 -1.528778 1.514513
											CHANNELS 6 Xposition Yposition Zposition Xrotation Yrotation Zrotation
											JOINT mixamorig:LeftHandThumb4
											{
												OFFSET 2.020889 -1.154053 1.115139
												CHANNELS 6 Xposition Yposition Zposition Xrotation Yrotation Zrotation
												End Site
												{
													OFFSET 190.885437 -115.081749 130.048782
												}
											}
										}
									}
								}
								JOINT mixamorig:LeftHandIndex1
								{
									OFFSET 9.109314 -0.518021 2.259871
									CHANNELS 6 Xposition Yposition Zposition Xrotation Yrotation Zrotation
									JOINT mixamorig:LeftHandIndex2
									{
										OFFSET 3.699989 0.000000 -0.000322
										CHANNELS 6 Xposition Yposition Zposition Xrotation Yrotation Zrotation
										JOINT mixamorig:LeftHandIndex3
										{
											OFFSET 2.850006 0.000000 0.000352
											CHANNELS 6 Xposition Yposition Zposition Xrotation Yrotation Zrotation
											JOINT mixamorig:LeftHandIndex4
											{
												OFFSET 2.774864 -0.000031 -0.000027
												CHANNELS 6 Xposition Yposition Zposition Xrotation Yrotation Zrotation
												End Site
												{
													OFFSET 277.486267 0.000000 -0.009857
												}
											}
										}
									}
								}
								JOINT mixamorig:LeftHandMiddle1
								{
									OFFSET 9.533394 0.000061 0.000044
									CHANNELS 6 Xposition Yposition Zposition Xrotation Yrotation Zrotation
									JOINT mixamorig:LeftHandMiddle2
									{
										OFFSET 3.699989 -0.000015 -0.000231
										CHANNELS 6 Xposition Yposition Zposition Xrotation Yrotation Zrotation
										JOINT mixamorig:LeftHandMiddle3
										{
											OFFSET 2.949997 -0.000015 -0.000059
											CHANNELS 6 Xposition Yposition Zposition Xrotation Yrotation Zrotation
											JOINT mixamorig:LeftHandMiddle4
											{
												OFFSET 2.952896 0.000031 0.000063
												CHANNELS 6 Xposition Yposition Zposition Xrotation Yrotation Zrotation
												End Site
												{
													OFFSET 295.289337 0.000000 0.022810
												}
											}
										}
									}
								}
								JOINT mixamorig:LeftHandRing1
								{
									OFFSET 9.104523 -0.042999 -1.865074
									CHANNELS 6 Xposition Yposition Zposition Xrotation Yrotation Zrotation
									JOINT mixamorig:LeftHandRing2
									{
										OFFSET 3.150009 -0.000031 0.000043
										CHANNELS 6 Xposition Yposition Zposition Xrotation Yrotation Zrotation
										JOINT mixamorig:LeftHandRing3
										{
											OFFSET 2.949982 -0.000015 0.000040
											CHANNELS 6 Xposition Yposition Zposition Xrotation Yrotation Zrotation
											JOINT mixamorig:LeftHandRing4
											{
												OFFSET 2.644348 0.000000 0.000057
												CHANNELS 6 Xposition Yposition Zposition Xrotation Yrotation Zrotation
												End Site
												{
													OFFSET 264.434631 0.000000 0.012105
												}
											}
										}
									}
								}
								JOINT mixamorig:LeftHandPinky1
								{
									OFFSET 8.077789 -0.486847 -3.806259
									CHANNELS 6 Xposition Yposition Zposition Xrotation Yrotation Zrotation
									JOINT mixamorig:LeftHandPinky2
									{
										OFFSET 3.599953 0.000031 0.014727
										CHANNELS 6 Xposition Yposition Zposition Xrotation Yrotation Zrotation
										JOINT mixamorig:LeftHandPinky3
										{
											OFFSET 2.100021 0.000015 0.007705
											CHANNELS 6 Xposition Yposition Zposition Xrotation Yrotation Zrotation
											JOINT mixamorig:LeftHandPinky4
											{
												OFFSET 2.125504 0.000031 0.007517
												CHANNELS 6 Xposition Yposition Zposition Xrotation Yrotation Zrotation
												End Site
												{
													OFFSET 212.550781 0.000000 0.625752
												}
											}
										}
									}
								}
							}
						}
					}
				}
			}
		}
	}
	JOINT mixamorig:RightUpLeg
	{
		OFFSET -8.207787 -6.751648 -1.599560
		CHANNELS 6 Xposition Yposition Zposition Xrotation Yrotation Zrotation
		JOINT mixamorig:RightLeg
		{
			OFFSET -0.000002 -44.370117 0.345942
			CHANNELS 6 Xposition Yposition Zposition Xrotation Yrotation Zrotation
			JOINT mixamorig:RightFoot
			{
				OFFSET 0.000003 -44.423679 -3.043532
				CHANNELS 6 Xposition Yposition Zposition Xrotation Yrotation Zrotation
				JOINT mixamorig:RightToeBase
				{
					OFFSET -0.000002 -8.728671 10.710558
					CHANNELS 6 Xposition Yposition Zposition Xrotation Yrotation Zrotation
					JOINT mixamorig:RightToe_End
					{
						OFFSET -0.000001 -0.000679 9.278119
						CHANNELS 6 Xposition Yposition Zposition Xrotation Yrotation Zrotation
						End Site
						{
							OFFSET 0.000000 -0.067690 927.812134
						}
					}
				}
			}
		}
	}
	JOINT mixamorig:LeftUpLeg
	{
		OFFSET 8.207793 -6.751686 -1.599556
		CHANNELS 6 Xposition Yposition Zposition Xrotation Yrotation Zrotation
		JOINT mixamorig:LeftLeg
		{
			OFFSET -0.000004 -44.370014 0.346954
			CHANNELS 6 Xposition Yposition Zposition Xrotation Yrotation Zrotation
			JOINT mixamorig:LeftFoot
			{
				OFFSET -0.000001 -44.423672 -3.044401
				CHANNELS 6 Xposition Yposition Zposition Xrotation Yrotation Zrotation
				JOINT mixamorig:LeftToeBase
				{
					OFFSET -0.000002 -8.728669 10.710558
					CHANNELS 6 Xposition Yposition Zposition Xrotation Yrotation Zrotation
					JOINT mixamorig:LeftToe_End
					{
						OFFSET -0.000003 -0.000679 9.278133
						CHANNELS 6 Xposition Yposition Zposition Xrotation Yrotation Zrotation
						End Site
						{
							OFFSET 0.000000 -0.068021 927.813477
						}
					}
				}
			}
		}
	}
}
MOTION
Frames: 3
Frame Time: 0.033333
0.000006 104.270477 1.554256 0.000010 0.000003 -0.000113 -0.000005 10.181587 0.131522 0.000001 -0.000003 0.000084 -0.000000 9.893967 -1.470711 0.000001 0.000000 -0.000000 -0.000000 9.220802 -1.370642 0.000000 -0.000000 -0.000000 0.000001 16.740433 -2.049030 0.000000 -0.000000 -0.000000 0.000000 9.617859 1.685014 0.000000 0.000000 0.000000 0.000002 22.037384 7.501101 0.000000 -0.000000 0.000000 -4.569968 11.014880 -2.160881 0.000008 0.000001 -0.000038 -10.592876 -0.524694 -2.231977 76.014903 13.198880 -10.332636 -27.841520 0.000015 0.000543 -53.570410 111.858561 73.477181 -28.328829 0.000021 0.000028 -0.000318 -0.000044 0.000007 -2.464435 -1.573716 2.682310 -51.832021 -169.807437 -21.174179 -3.215293 -1.872627 1.924662 155.906171 30.694105 -2.433108 -2.654981 -1.527892 1.513103 145.860862 26.778243 -41.407452 -2.018845 -1.152001 1.108069 -0.000002 -0.000000 0.000000 -9.108377 -0.517558 2.260127 99.817450 15.295739 -18.180580 -3.700060 0.000317 0.001510 98.161983 12.713765 -14.620618 -2.850077 0.000380 -0.000257 96.952213 9.670694 -10.913401 -2.772164 -0.000015 -0.000017 0.000001 0.000000 0.000000 -9.532581 0.000274 0.000236 93.870766 15.326752 -16.535683 -3.700058 0.000331 0.003969 94.008579 11.234034 -11.942635 -2.950058 0.000324 -0.001804 95.308207 10.504431 -11.511407 -2.946625 0.000001 -0.000153 -0.000005 0.000002 -0.000000 -9.103687 -0.042758 -1.864862 92.262182 16.586389 -17.198544 -3.379294 0.000330 -0.000808 93.531279 8.143075 -8.677257 -2.889755 0.000345 0.000637 99.668504 5.661089 -6.757931 -2.638809 -0.000000 0.000939 0.000001 0.000001 -0.000003 -8.076751 -0.486373 -3.805997 90.080988 16.912740 -16.785794 -3.600035 0.000293 -0.003512 93.076231 6.494794 -6.487642 -2.100005 0.000315 -0.005471 97.145337 2.986017 -3.144587 -2.115768 -0.000027 -0.003684 0.000000 0.000001 -0.000003 4.570446 11.014691 -2.160851 -0.000018 0.000010 -0.000021 10.592472 -0.524557 -2.232365 44.767280 -53.848504 23.626978 27.841785 -0.000065 -0.000122 205.743562 -75.319201 212.987278 28.328836 -0.000044 0.000025 0.000023 -0.000088 0.000001 2.465902 -1.576113 2.681884 -51.068942 152.925586 17.831484 3.217645 -1.872073 1.916550 165.505852 48.308395 -216.263679 2.655969 -1.528837 1.514611 196.695064 46.860371 -255.247885 2.020890 -1.154069 1.115148 0.000000 0.000000 0.000006 9.109391 -0.517803 2.259753 100.156050 -17.060470 20.309509 3.700048 0.000106 -0.000437 67.292943 -17.953886 12.016395 2.850043 0.000082 0.000223 51.244129 -13.190262 6.346881 2.774885 -0.000026 -0.000028 -0.000000 0.000000 -0.000002 9.533474 0.000256 -0.000068 100.603905 -18.186794 21.814820 3.700043 0.000105 -0.000359 65.899099 -15.866934 10.320615 2.950047 0.000062 -0.000185 50.491880 -12.304903 5.821170 2.952866 -0.000013 0.000065 -0.000000 0.000000 0.000003 9.104632 -0.042800 -1.865186 109.961326 -22.224546 31.320048 3.150031 0.000171 -0.000090 76.077714 -11.331210 8.877930 2.949991 0.000090 -0.000100 56.503577 -4.252327 2.286641 2.644324 0.000038 0.000059 0.000002 0.000002 0.000003 8.077691 -0.486869 -3.806162 -1.738348 -142.704618 -3.723011 3.599727 0.000033 0.014839 182.570888 -23.848258 -166.133492 2.099880 -0.000055 0.007790 175.400624 -17.564866 -206.108348 2.125504 -0.000002 0.007515 0.000000 -0.000001 -0.000000 -8.207786 -6.751667 -1.599560 -0.077001 -0.000003 0.000080 -0.000002 -44.370110 0.345938 0.153719 -0.000000 -0.000000 0.000000 -44.423679 -3.043532 -0.076700 0.000000 -0.000002 -0.000006 -8.728667 10.710559 -0.000009 -0.000000 -0.000000 -0.000001 -0.000679 9.278123 0.000000 -0.000000 -0.000000 8.207792 -6.751710 -1.599556 -0.074518 -0.000003 0.000081 -0.000002 -44.370014 0.346960 0.148822 0.000002 0.000000 -0.000001 -44.423664 -3.044403 -0.074314 0.000000 -0.000002 -0.000004 -8.728671 10.710558 0.000007 -0.000000 -0.000000 0.000000 -0.000680 9.278137 -0.000000 0.000000 -0.000001 
0.000006 104.270477 1.554256 0.000010 0.000003 -0.000113 -0.000005 10.181587 0.131522 0.000001 -0.000003 0.000084 -0.000000 9.893967 -1.470711 0.000001 0.000000 -0.000000 -0.000000 9.220802 -1.370642 0.000000 -0.000000 -0.000000 0.000001 16.740433 -2.049030 0.000000 -0.000000 -0.000000 0.000000 9.617859 1.685014 0.000000 0.000000 0.000000 0.000002 22.037384 7.501101 0.000000 -0.000000 0.000000 -4.569968 11.014880 -2.160881 0.000008 0.000001 -0.000038 -10.592875 -0.524689 -2.232011 76.218641 11.784567 -9.255936 -27.841518 0.000015 0.000551 -53.922288 111.198000 73.214915 -28.328842 0.000006 0.000022 -0.000315 -0.000044 0.000006 -2.464421 -1.573739 2.682321 -49.741013 -167.055895 -14.867218 -3.215285 -1.872588 1.924677 156.582497 30.377130 -4.521035 -2.654924 -1.527911 1.513082 145.441474 26.785152 -42.488995 -2.018829 -1.151984 1.108064 0.000002 0.000000 -0.000000 -9.108373 -0.517548 2.260122 100.151296 15.509022 -18.539678 -3.700062 0.000325 0.001514 98.458495 12.477127 -14.423218 -2.850073 0.000362 -0.000254 97.508129 9.421205 -10.736070 -2.772175 -0.000015 -0.000015 -0.000001 0.000001 -0.000001 -9.532591 0.000261 0.000247 94.083978 16.386542 -17.732983 -3.700065 0.000335 0.003974 93.827128 11.612344 -12.308513 -2.950071 0.000326 -0.001798 95.431745 10.635578 -11.680130 -2.946620 0.000003 -0.000155 0.000003 -0.000001 0.000001 -9.103703 -0.042748 -1.864874 92.543954 18.064145 -18.823129 -3.379330 0.000322 -0.000806 93.413738 9.046080 -9.617517 -2.889739 0.000356 0.000663 99.886626 5.997652 -7.184156 -2.638818 -0.000011 0.000942 0.000001 -0.000001 0.000000 -8.076758 -0.486382 -3.806017 90.392984 18.174616 -18.144585 -3.600055 0.000285 -0.003494 92.937783 7.753046 -7.789663 -2.100000 0.000337 -0.005469 97.240672 3.810491 -4.082415 -2.115790 -0.000038 -0.003680 0.000002 -0.000000 -0.000004 4.570446 11.014691 -2.160851 -0.000018 0.000010 -0.000021 10.592468 -0.524548 -2.232367 44.605059 -53.325476 23.276521 27.841799 -0.000044 -0.000117 204.228694 -74.356458 211.603686 28.328833 -0.000044 0.000015 0.000020 -0.000088 -0.000000 2.465851 -1.576073 2.681828 -59.806530 158.962913 38.750832 3.217625 -1.872070 1.916518 160.593498 52.516624 -207.274207 2.655915 -1.528841 1.514623 180.263978 49.747270 -233.364724 2.020895 -1.154052 1.115144 0.000002 0.000006 0.000004 9.109381 -0.517779 2.259743 111.309107 -12.840500 18.685113 3.700040 0.000095 -0.000474 65.604636 -11.920821 7.710377 2.850034 0.000090 0.000254 41.210090 -7.681856 2.891419 2.774891 -0.000032 -0.000029 0.000001 -0.000001 0.000002 9.533488 0.000279 -0.000058 110.436311 -17.320357 24.724856 3.700033 0.000095 -0.000370 61.392090 -15.101217 8.997045 2.950031 0.000043 -0.000177 44.201825 -8.808414 3.583993 2.952852 -0.000016 0.000065 -0.000001 0.000000 -0.000001 9.104626 -0.042782 -1.865177 116.571576 -19.322885 30.807910 3.150054 0.000161 -0.000116 69.622324 -8.611079 5.994398 2.949972 0.000087 -0.000099 49.580411 -0.323250 0.149982 2.644337 0.000018 0.000052 0.000002 0.000000 0.000001 8.077728 -0.486876 -3.806177 -4.864523 -149.449252 -15.784154 3.599823 -0.000022 0.014813 176.060762 -21.553304 -198.006624 2.099919 -0.000026 0.007783 174.314118 -14.947459 -217.811372 2.125511 0.000000 0.007514 0.000001 0.000000 0.000000 -8.207786 -6.751667 -1.599560 -0.077001 -0.000003 0.000080 -0.000002 -44.370110 0.345938 0.153719 -0.000000 -0.000000 0.000000 -44.423679 -3.043532 -0.076700 0.000000 -0.000002 -0.000006 -8.728667 10.710559 -0.000009 -0.000000 -0.000000 -0.000001 -0.000679 9.278123 0.000000 -0.000000 -0.000000 8.207792 -6.751710 -1.599556 -0.074518 -0.000003 0.000081 -0.000002 -44.370014 0.346960 0.148822 0.000002 0.000000 -0.000001 -44.423664 -3.044403 -0.074314 0.000000 -0.000002 -0.000004 -8.728671 10.710558 0.000007 -0.000000 -0.000000 0.000000 -0.000680 9.278137 -0.000000 0.000000 -0.000001 
0.000006 104.270477 1.554256 0.000010 0.000003 -0.000113 -0.000005 10.181587 0.131522 0.000001 -0.000003 0.000084 -0.000000 9.893967 -1.470711 0.000001 0.000000 -0.000000 -0.000000 9.220802 -1.370642 0.000000 -0.000000 -0.000000 0.000001 16.740433 -2.049030 0.000000 -0.000000 -0.000000 0.000000 9.617859 1.685014 0.000000 0.000000 0.000000 0.000002 22.037384 7.501101 0.000000 -0.000000 0.000000 -4.569968 11.014880 -2.160881 0.000008 0.000001 -0.000038 -10.592882 -0.524715 -2.231964 76.103341 16.309988 -12.799885 -27.841526 0.000007 0.000552 -53.904440 110.393779 72.372049 -28.328825 0.000023 0.000030 -0.000320 -0.000044 0.000006 -2.464432 -1.573740 2.682322 -49.754906 -167.133732 -14.908758 -3.215289 -1.872585 1.924675 156.238597 30.567234 -3.309862 -2.654955 -1.527898 1.513092 145.628990 26.812985 -41.635884 -2.018837 -1.151994 1.108058 -0.000002 0.000001 -0.000000 -9.108375 -0.517546 2.260131 100.263393 15.478436 -18.539584 -3.700088 0.000326 0.001514 97.920959 12.510207 -14.326428 -2.850083 0.000377 -0.000260 96.901943 9.586754 -10.809285 -2.772169 -0.000003 -0.000020 -0.000001 0.000001 -0.000001 -9.532588 0.000268 0.000242 93.825216 16.347303 -17.612252 -3.700073 0.000330 0.003971 93.442452 11.725630 -12.346638 -2.950056 0.000345 -0.001808 95.441990 10.724901 -11.780272 -2.946617 -0.000012 -0.000153 0.000000 -0.000000 0.000000 -9.103703 -0.042760 -1.864864 92.088025 18.087067 -18.700179 -3.379316 0.000320 -0.000805 93.439385 9.340294 -9.934044 -2.889741 0.000333 0.000660 99.854183 6.333014 -7.578442 -2.638807 -0.000013 0.000938 0.000005 -0.000000 -0.000001 -8.076755 -0.486388 -3.805995 90.195073 18.430427 -18.339357 -3.600026 0.000288 -0.003496 92.842543 8.146408 -8.188028 -2.099999 0.000330 -0.005451 97.137741 4.107958 -4.410884 -2.115772 -0.000052 -0.003685 0.000002 0.000001 -0.000002 4.570446 11.014691 -2.160851 -0.000018 0.000010 -0.000021 10.592466 -0.524553 -2.232364 44.386773 -54.140628 23.554527 27.841795 -0.000061 -0.000125 201.964131 -74.079084 208.842487 28.328831 -0.000028 0.000018 0.000023 -0.000089 0.000000 2.465818 -1.576013 2.681793 -65.968481 168.024716 59.529087 3.217538 -1.872033 1.916524 134.197863 41.827716 -168.759030 2.655780 -1.528816 1.514616 143.365070 40.081456 -182.253790 2.020869 -1.154071 1.115140 -0.000004 0.000000 -0.000001 9.109365 -0.517777 2.259724 105.612278 -8.459777 11.117980 3.700019 0.000096 -0.000473 58.541920 -8.361846 4.701790 2.850013 0.000052 0.000253 31.472815 -3.077996 0.867150 2.774871 -0.000034 -0.000028 -0.000000 0.000001 -0.000003 9.533455 0.000293 -0.000074 105.563019 -11.210974 14.714621 3.700018 0.000074 -0.000390 53.841521 -9.073185 4.613017 2.950030 0.000021 -0.000175 37.755575 -3.875052 1.326426 2.952863 -0.000029 0.000062 -0.000000 -0.000000 0.000001 9.104595 -0.042758 -1.865204 112.274096 -12.703359 18.840230 3.150015 0.000145 -0.000120 63.726061 -4.629061 2.879192 2.949983 0.000089 -0.000088 44.231011 0.821777 -0.333366 2.644319 0.000029 0.000060 0.000001 0.000000 -0.000001 8.077784 -0.486887 -3.806192 -9.704136 -154.716065 -38.985238 3.599825 -0.000020 0.014804 175.909350 -19.659407 -200.541075 2.099942 -0.000024 0.007774 174.264258 -12.922913 -223.482492 2.125516 -0.000013 0.007517 -0.000001 -0.000000 0.000001 -8.207786 -6.751667 -1.599560 -0.077001 -0.000003 0.000080 -0.000002 -44.370110 0.345938 0.153719 -0.000000 -0.000000 0.000000 -44.423679 -3.043532 -0.076700 0.000000 -0.000002 -0.000006 -8.728667 10.710559 -0.000009 -0.000000 -0.000000 -0.000001 -0.000679 9.278123 0.000000 -0.000000 -0.000000 8.207792 -6.751710 -1.599556 -0.074518 -0.000003 0.000081 -0.000002 -44.370014 0.346960 0.148822 0.000002 0.000000 -0.000001 -44.423664 -3.044403 -0.074314 0.000000 -0.000002 -0.000004 -8.728671 10.710558 0.000007 -0.000000 -0.000000 0.000000 -0.000680 9.278137 -0.000000 0.000000 -0.000001 
